<svg width="1920" height="1080" viewBox="0 0 1920 1080" fill="none" xmlns="http://www.w3.org/2000/svg">
<g clip-path="url(#clip0_311_2448)">
<rect width="1920" height="1080" fill="white"/>
<g opacity="0.3">
<mask id="mask0_311_2448" style="mask-type:luminance" maskUnits="userSpaceOnUse" x="0" y="0" width="1920" height="1280">
<path d="M0 1280L1920 1280L1920 0L0 0L0 1280Z" fill="white"/>
</mask>
<g mask="url(#mask0_311_2448)">
<path opacity="0.75" d="M1079.79 -93.5371L1387.17 1032.37L2231.21 -53.0123L1079.79 -93.5371Z" fill="url(#paint0_linear_311_2448)"/>
</g>
<mask id="mask1_311_2448" style="mask-type:luminance" maskUnits="userSpaceOnUse" x="0" y="0" width="1920" height="1280">
<path d="M0 1280L1920 1280L1920 0L0 0L0 1280Z" fill="white"/>
</mask>
<g mask="url(#mask1_311_2448)">
<path opacity="0.75" d="M-110.01 1377.42L1211.18 387.74L1493.77 1422.88L-110.01 1377.42Z" fill="url(#paint1_linear_311_2448)"/>
</g>
<mask id="mask2_311_2448" style="mask-type:luminance" maskUnits="userSpaceOnUse" x="0" y="0" width="1920" height="1280">
<path d="M0 1280L1920 1280L1920 0L0 0L0 1280Z" fill="white"/>
</mask>
<g mask="url(#mask2_311_2448)">
<path opacity="0.75" d="M1194.6 1280L1793.06 510.418L2114.33 1356.19L1194.6 1280Z" fill="url(#paint2_linear_311_2448)"/>
</g>
<mask id="mask3_311_2448" style="mask-type:luminance" maskUnits="userSpaceOnUse" x="0" y="0" width="1920" height="1280">
<path d="M0 1280L1920 1280L1920 0L0 0L0 1280Z" fill="white"/>
</mask>
<g mask="url(#mask3_311_2448)">
<path opacity="0.75" d="M1765.87 1193.83L1397.35 1069.68L1474 1367.29L1765.87 1193.83Z" fill="url(#paint3_linear_311_2448)"/>
</g>
<mask id="mask4_311_2448" style="mask-type:luminance" maskUnits="userSpaceOnUse" x="0" y="0" width="1920" height="1280">
<path d="M0 1280L1920 1280L1920 0L0 0L0 1280Z" fill="white"/>
</mask>
<g mask="url(#mask4_311_2448)">
<path opacity="0.75" d="M1397.35 1069.68L2106.18 730.704L1765.87 1193.83L1397.35 1069.68Z" fill="url(#paint4_linear_311_2448)"/>
</g>
<mask id="mask5_311_2448" style="mask-type:luminance" maskUnits="userSpaceOnUse" x="0" y="0" width="1920" height="1280">
<path d="M0 1280L1920 1280L1920 0L0 0L0 1280Z" fill="white"/>
</mask>
<g mask="url(#mask5_311_2448)">
<path opacity="0.75" d="M2106.18 730.704L2263.59 983.391L1765.87 1193.83L2106.18 730.704Z" fill="url(#paint5_linear_311_2448)"/>
</g>
<mask id="mask6_311_2448" style="mask-type:luminance" maskUnits="userSpaceOnUse" x="0" y="0" width="1920" height="1280">
<path d="M0 1280L1920 1280L1920 0L0 0L0 1280Z" fill="white"/>
</mask>
<g mask="url(#mask6_311_2448)">
<path opacity="0.75" d="M1630.3 958.28L1649.75 694.702L1912.01 823.56L1630.3 958.28Z" fill="url(#paint6_linear_311_2448)"/>
</g>
<mask id="mask7_311_2448" style="mask-type:luminance" maskUnits="userSpaceOnUse" x="0" y="0" width="1920" height="1280">
<path d="M0 1280L1920 1280L1920 0L0 0L0 1280Z" fill="white"/>
</mask>
<g mask="url(#mask7_311_2448)">
<path opacity="0.75" d="M-147.47 1055.64L-25.0715 1313.79L173.61 1164.96L-147.47 1055.64Z" fill="url(#paint7_linear_311_2448)"/>
</g>
<mask id="mask8_311_2448" style="mask-type:luminance" maskUnits="userSpaceOnUse" x="0" y="0" width="1920" height="1280">
<path d="M0 1280L1920 1280L1920 0L0 0L0 1280Z" fill="white"/>
</mask>
<g mask="url(#mask8_311_2448)">
<path opacity="0.75" d="M-147.47 1055.64L227.06 946.399L173.61 1164.96L-147.47 1055.64Z" fill="url(#paint8_linear_311_2448)"/>
</g>
<mask id="mask9_311_2448" style="mask-type:luminance" maskUnits="userSpaceOnUse" x="0" y="0" width="1920" height="1280">
<path d="M0 1280L1920 1280L1920 0L0 0L0 1280Z" fill="white"/>
</mask>
<g mask="url(#mask9_311_2448)">
<path opacity="0.75" d="M173.612 1164.96L333.18 1212.54L227.063 946.399L173.612 1164.96Z" fill="url(#paint9_linear_311_2448)"/>
</g>
<mask id="mask10_311_2448" style="mask-type:luminance" maskUnits="userSpaceOnUse" x="0" y="0" width="1920" height="1280">
<path d="M0 1280L1920 1280L1920 0L0 0L0 1280Z" fill="white"/>
</mask>
<g mask="url(#mask10_311_2448)">
<path opacity="0.75" d="M-2.3374 1013.31L80.3711 783.063L227.062 946.399L-2.3374 1013.31Z" fill="url(#paint10_linear_311_2448)"/>
</g>
<mask id="mask11_311_2448" style="mask-type:luminance" maskUnits="userSpaceOnUse" x="0" y="0" width="1920" height="1280">
<path d="M0 1280L1920 1280L1920 0L0 0L0 1280Z" fill="white"/>
</mask>
<g mask="url(#mask11_311_2448)">
<path opacity="0.75" d="M793.378 1207.39L686.485 1019.76L1051.23 1132L793.378 1207.39Z" fill="url(#paint11_linear_311_2448)"/>
</g>
<mask id="mask12_311_2448" style="mask-type:luminance" maskUnits="userSpaceOnUse" x="0" y="0" width="1920" height="1280">
<path d="M0 1280L1920 1280L1920 0L0 0L0 1280Z" fill="white"/>
</mask>
<g mask="url(#mask12_311_2448)">
<path opacity="0.75" d="M547.89 588.864L554.466 268.139L267.265 453.091L547.89 588.864Z" fill="url(#paint12_linear_311_2448)"/>
</g>
<mask id="mask13_311_2448" style="mask-type:luminance" maskUnits="userSpaceOnUse" x="0" y="0" width="1920" height="1280">
<path d="M0 1280L1920 1280L1920 0L0 0L0 1280Z" fill="white"/>
</mask>
<g mask="url(#mask13_311_2448)">
<path opacity="0.75" d="M2231.21 -53.0125L1793.06 510.418L1679.15 -123.899L2231.21 -53.0125Z" fill="url(#paint13_linear_311_2448)"/>
</g>
<mask id="mask14_311_2448" style="mask-type:luminance" maskUnits="userSpaceOnUse" x="0" y="0" width="1920" height="1280">
<path d="M0 1280L1920 1280L1920 0L0 0L0 1280Z" fill="white"/>
</mask>
<g mask="url(#mask14_311_2448)">
<path opacity="0.75" d="M1793.06 510.418L1240.63 -130.964L986.263 340.319L1793.06 510.418Z" fill="url(#paint14_linear_311_2448)"/>
</g>
<mask id="mask15_311_2448" style="mask-type:luminance" maskUnits="userSpaceOnUse" x="0" y="0" width="1920" height="1280">
<path d="M0 1280L1920 1280L1920 0L0 0L0 1280Z" fill="white"/>
</mask>
<g mask="url(#mask15_311_2448)">
<path opacity="0.75" d="M1516.85 189.727L1679.15 -123.899L1240.63 -130.964L1516.85 189.727Z" fill="url(#paint15_linear_311_2448)"/>
</g>
<mask id="mask16_311_2448" style="mask-type:luminance" maskUnits="userSpaceOnUse" x="0" y="0" width="1920" height="1280">
<path d="M0 1280L1920 1280L1920 0L0 0L0 1280Z" fill="white"/>
</mask>
<g mask="url(#mask16_311_2448)">
<path opacity="0.75" d="M1211.18 387.74L1026.84 525.829L986.263 340.319L1211.18 387.74Z" fill="url(#paint16_linear_311_2448)"/>
</g>
<mask id="mask17_311_2448" style="mask-type:luminance" maskUnits="userSpaceOnUse" x="0" y="0" width="1920" height="1280">
<path d="M0 1280L1920 1280L1920 0L0 0L0 1280Z" fill="white"/>
</mask>
<g mask="url(#mask17_311_2448)">
<path opacity="0.75" d="M1240.63 -130.965L986.263 -167.429L1086.71 154.207L1240.63 -130.965Z" fill="url(#paint17_linear_311_2448)"/>
</g>
<mask id="mask18_311_2448" style="mask-type:luminance" maskUnits="userSpaceOnUse" x="0" y="0" width="1920" height="1280">
<path d="M0 1280L1920 1280L1920 0L0 0L0 1280Z" fill="white"/>
</mask>
<g mask="url(#mask18_311_2448)">
<path opacity="0.75" d="M1649.75 694.702L1793.06 510.418L1912.01 823.56L1649.75 694.702Z" fill="url(#paint18_linear_311_2448)"/>
</g>
<mask id="mask19_311_2448" style="mask-type:luminance" maskUnits="userSpaceOnUse" x="0" y="0" width="1920" height="1280">
<path d="M0 1280L1920 1280L1920 0L0 0L0 1280Z" fill="white"/>
</mask>
<g mask="url(#mask19_311_2448)">
<path opacity="0.75" d="M1912.01 823.56L1793.06 510.418L2016.27 223.386L1912.01 823.56Z" fill="url(#paint19_linear_311_2448)"/>
</g>
<mask id="mask20_311_2448" style="mask-type:luminance" maskUnits="userSpaceOnUse" x="0" y="0" width="1920" height="1280">
<path d="M0 1280L1920 1280L1920 0L0 0L0 1280Z" fill="white"/>
</mask>
<g mask="url(#mask20_311_2448)">
<path opacity="0.75" d="M1649.75 694.702L1515.5 451.896L1731.52 497.444L1649.75 694.702Z" fill="url(#paint20_linear_311_2448)"/>
</g>
</g>
</g>
<defs>
<linearGradient id="paint0_linear_311_2448" x1="1247.55" y1="808.201" x2="1622.89" y2="-2.80712" gradientUnits="userSpaceOnUse">
<stop stop-color="#BCFECC" stop-opacity="0"/>
<stop offset="1" stop-color="#00A4BD"/>
</linearGradient>
<linearGradient id="paint1_linear_311_2448" x1="362.384" y1="201.151" x2="638.223" y2="1199.88" gradientUnits="userSpaceOnUse">
<stop stop-color="#BCFECC"/>
<stop offset="0.8198" stop-color="#00A4BD" stop-opacity="0"/>
</linearGradient>
<linearGradient id="paint2_linear_311_2448" x1="1866.78" y1="1405.95" x2="1413.24" y2="784.847" gradientUnits="userSpaceOnUse">
<stop stop-color="#BCFECC" stop-opacity="0"/>
<stop offset="1" stop-color="#00A4BD"/>
</linearGradient>
<linearGradient id="paint3_linear_311_2448" x1="1715.47" y1="1633.44" x2="1518.21" y2="904.857" gradientUnits="userSpaceOnUse">
<stop stop-color="#BCFECC"/>
<stop offset="0.8198" stop-color="#00A4BD" stop-opacity="0"/>
</linearGradient>
<linearGradient id="paint4_linear_311_2448" x1="1822.63" y1="1026.34" x2="1698.25" y2="804.943" gradientUnits="userSpaceOnUse">
<stop stop-color="#BCFECC" stop-opacity="0"/>
<stop offset="1" stop-color="#00A4BD"/>
</linearGradient>
<linearGradient id="paint5_linear_311_2448" x1="2145.06" y1="1426.89" x2="1845.02" y2="648.128" gradientUnits="userSpaceOnUse">
<stop stop-color="#BCFECC"/>
<stop offset="0.8198" stop-color="#00A4BD" stop-opacity="0"/>
</linearGradient>
<linearGradient id="paint6_linear_311_2448" x1="1884.45" y1="1172.4" x2="1575.83" y2="405.637" gradientUnits="userSpaceOnUse">
<stop stop-color="#BCFECC"/>
<stop offset="0.8198" stop-color="#00A4BD" stop-opacity="0"/>
</linearGradient>
<linearGradient id="paint7_linear_311_2448" x1="23.4699" y1="1082.48" x2="-77.0966" y2="1351.49" gradientUnits="userSpaceOnUse">
<stop stop-color="#BCFECC"/>
<stop offset="0.8198" stop-color="#00A4BD" stop-opacity="0"/>
</linearGradient>
<linearGradient id="paint8_linear_311_2448" x1="-63.5096" y1="1002.91" x2="322.068" y2="1080.03" gradientUnits="userSpaceOnUse">
<stop stop-color="#BCFECC" stop-opacity="0"/>
<stop offset="1" stop-color="#00A4BD"/>
</linearGradient>
<linearGradient id="paint9_linear_311_2448" x1="456.087" y1="907.659" x2="149.791" y2="1206.72" gradientUnits="userSpaceOnUse">
<stop stop-color="#BCFECC"/>
<stop offset="0.8198" stop-color="#00A4BD" stop-opacity="0"/>
</linearGradient>
<linearGradient id="paint10_linear_311_2448" x1="220.236" y1="748.968" x2="28.6924" y2="1082.3" gradientUnits="userSpaceOnUse">
<stop stop-color="#BCFECC"/>
<stop offset="0.8198" stop-color="#00A4BD" stop-opacity="0"/>
</linearGradient>
<linearGradient id="paint11_linear_311_2448" x1="790.729" y1="1249.72" x2="890.233" y2="1028.32" gradientUnits="userSpaceOnUse">
<stop stop-color="#BCFECC"/>
<stop offset="0.8198" stop-color="#00A4BD" stop-opacity="0"/>
</linearGradient>
<linearGradient id="paint12_linear_311_2448" x1="562.286" y1="730.979" x2="378.204" y2="280.724" gradientUnits="userSpaceOnUse">
<stop stop-color="#BCFECC"/>
<stop offset="0.8198" stop-color="#00A4BD" stop-opacity="0"/>
</linearGradient>
<linearGradient id="paint13_linear_311_2448" x1="2155.81" y1="743.202" x2="1893.67" y2="-195.547" gradientUnits="userSpaceOnUse">
<stop stop-color="#BCFECC"/>
<stop offset="0.8198" stop-color="#00A4BD" stop-opacity="0"/>
</linearGradient>
<linearGradient id="paint14_linear_311_2448" x1="993.89" y1="-12.1873" x2="1780.31" y2="756.522" gradientUnits="userSpaceOnUse">
<stop stop-color="#BCFECC"/>
<stop offset="0.8198" stop-color="#00A4BD" stop-opacity="0"/>
</linearGradient>
<linearGradient id="paint15_linear_311_2448" x1="1658.62" y1="-320.473" x2="1120.17" y2="352.594" gradientUnits="userSpaceOnUse">
<stop stop-color="#BCFECC" stop-opacity="0"/>
<stop offset="1" stop-color="#00A4BD"/>
</linearGradient>
<linearGradient id="paint16_linear_311_2448" x1="1088.6" y1="142.371" x2="1120.48" y2="840.233" gradientUnits="userSpaceOnUse">
<stop stop-color="#BCFECC" stop-opacity="0"/>
<stop offset="1" stop-color="#00A4BD"/>
</linearGradient>
<linearGradient id="paint17_linear_311_2448" x1="1001.5" y1="334.897" x2="1132.57" y2="-231.895" gradientUnits="userSpaceOnUse">
<stop stop-color="#BCFECC"/>
<stop offset="0.8198" stop-color="#00A4BD" stop-opacity="0"/>
</linearGradient>
<linearGradient id="paint18_linear_311_2448" x1="1977.43" y1="516.912" x2="1681.4" y2="872.637" gradientUnits="userSpaceOnUse">
<stop stop-color="#BCFECC"/>
<stop offset="0.8198" stop-color="#00A4BD" stop-opacity="0"/>
</linearGradient>
<linearGradient id="paint19_linear_311_2448" x1="1957.34" y1="619.176" x2="1869.96" y2="200.647" gradientUnits="userSpaceOnUse">
<stop stop-color="#BCFECC" stop-opacity="0"/>
<stop offset="1" stop-color="#00A4BD"/>
</linearGradient>
<linearGradient id="paint20_linear_311_2448" x1="1540.69" y1="382.391" x2="1696.28" y2="604.117" gradientUnits="userSpaceOnUse">
<stop stop-color="#BCFECC"/>
<stop offset="0.8198" stop-color="#00A4BD" stop-opacity="0"/>
</linearGradient>
<clipPath id="clip0_311_2448">
<rect width="1920" height="1080" fill="white"/>
</clipPath>
</defs>
</svg>
